<mxfile host="app.diagrams.net" modified="2024-03-20T14:27:16.984Z" agent="Mozilla/5.0 (Windows NT 10.0; Win64; x64) AppleWebKit/537.36 (KHTML, like Gecko) Chrome/122.0.0.0 Safari/537.36" etag="r1geo007zomj6A5YTwuI" version="24.0.7" type="github">
  <diagram name="Page-1" id="BNhoLXWO7OdI7dN5E4v0">
    <mxGraphModel dx="1298" dy="887" grid="0" gridSize="10" guides="1" tooltips="1" connect="1" arrows="1" fold="1" page="0" pageScale="1" pageWidth="850" pageHeight="1100" math="0" shadow="0">
      <root>
        <mxCell id="0" />
        <mxCell id="1" parent="0" />
        <mxCell id="Ib48CJe-XDvlAqQN1oVx-23" value="Pengadilan" style="swimlane;html=1;childLayout=stackLayout;resizeParent=1;resizeParentMax=0;horizontal=0;startSize=20;horizontalStack=0;whiteSpace=wrap;" vertex="1" parent="1">
          <mxGeometry x="-139" y="-53" width="802" height="377" as="geometry" />
        </mxCell>
        <mxCell id="Ib48CJe-XDvlAqQN1oVx-24" value="proses pagi" style="swimlane;html=1;startSize=20;horizontal=0;" vertex="1" parent="Ib48CJe-XDvlAqQN1oVx-23">
          <mxGeometry x="20" width="782" height="189" as="geometry" />
        </mxCell>
        <mxCell id="Ib48CJe-XDvlAqQN1oVx-32" style="edgeStyle=orthogonalEdgeStyle;rounded=0;orthogonalLoop=1;jettySize=auto;html=1;entryX=0;entryY=0.5;entryDx=0;entryDy=0;" edge="1" parent="Ib48CJe-XDvlAqQN1oVx-24" source="Ib48CJe-XDvlAqQN1oVx-29" target="Ib48CJe-XDvlAqQN1oVx-31">
          <mxGeometry relative="1" as="geometry" />
        </mxCell>
        <mxCell id="Ib48CJe-XDvlAqQN1oVx-29" value="" style="ellipse;whiteSpace=wrap;html=1;aspect=fixed;" vertex="1" parent="Ib48CJe-XDvlAqQN1oVx-24">
          <mxGeometry x="45" y="74" width="35.5" height="35.5" as="geometry" />
        </mxCell>
        <mxCell id="Ib48CJe-XDvlAqQN1oVx-30" value="mulai" style="text;strokeColor=none;align=center;fillColor=none;html=1;verticalAlign=middle;whiteSpace=wrap;rounded=0;" vertex="1" parent="Ib48CJe-XDvlAqQN1oVx-24">
          <mxGeometry x="32.749223632812516" y="109.99611175537109" width="60" height="30" as="geometry" />
        </mxCell>
        <mxCell id="Ib48CJe-XDvlAqQN1oVx-31" value="pemeriksaan berkas" style="rounded=1;whiteSpace=wrap;html=1;" vertex="1" parent="Ib48CJe-XDvlAqQN1oVx-24">
          <mxGeometry x="138" y="66.75" width="90" height="51" as="geometry" />
        </mxCell>
        <mxCell id="Ib48CJe-XDvlAqQN1oVx-33" value="berkas pengadilan" style="shape=mxgraph.bpmn.data;labelPosition=center;verticalLabelPosition=bottom;align=center;verticalAlign=top;size=7;html=1;" vertex="1" parent="Ib48CJe-XDvlAqQN1oVx-24">
          <mxGeometry x="92.75" y="9" width="23.5" height="30" as="geometry" />
        </mxCell>
        <mxCell id="Ib48CJe-XDvlAqQN1oVx-35" value="" style="edgeStyle=elbowEdgeStyle;fontSize=12;html=1;endFill=0;startFill=0;endSize=6;startSize=6;dashed=1;dashPattern=1 4;endArrow=none;startArrow=none;rounded=0;exitX=0;exitY=0;exitDx=23.5;exitDy=18.5;exitPerimeter=0;entryX=0.5;entryY=0;entryDx=0;entryDy=0;" edge="1" parent="Ib48CJe-XDvlAqQN1oVx-24" source="Ib48CJe-XDvlAqQN1oVx-33" target="Ib48CJe-XDvlAqQN1oVx-31">
          <mxGeometry width="160" relative="1" as="geometry">
            <mxPoint x="155" y="29" as="sourcePoint" />
            <mxPoint x="491" y="18" as="targetPoint" />
            <Array as="points">
              <mxPoint x="183" y="40" />
            </Array>
          </mxGeometry>
        </mxCell>
        <mxCell id="Ib48CJe-XDvlAqQN1oVx-39" style="edgeStyle=orthogonalEdgeStyle;rounded=0;orthogonalLoop=1;jettySize=auto;html=1;entryX=0;entryY=0.5;entryDx=0;entryDy=0;" edge="1" parent="Ib48CJe-XDvlAqQN1oVx-24" source="Ib48CJe-XDvlAqQN1oVx-36" target="Ib48CJe-XDvlAqQN1oVx-41">
          <mxGeometry relative="1" as="geometry">
            <mxPoint x="365.7799944196429" y="92.25" as="targetPoint" />
          </mxGeometry>
        </mxCell>
        <mxCell id="Ib48CJe-XDvlAqQN1oVx-36" value="" style="points=[[0.25,0.25,0],[0.5,0,0],[0.75,0.25,0],[1,0.5,0],[0.75,0.75,0],[0.5,1,0],[0.25,0.75,0],[0,0.5,0]];shape=mxgraph.bpmn.gateway2;html=1;verticalLabelPosition=bottom;labelBackgroundColor=#ffffff;verticalAlign=top;align=center;perimeter=rhombusPerimeter;outlineConnect=0;outline=none;symbol=none;gwType=exclusive;" vertex="1" parent="Ib48CJe-XDvlAqQN1oVx-24">
          <mxGeometry x="288" y="71.94" width="40.62" height="40.62" as="geometry" />
        </mxCell>
        <mxCell id="Ib48CJe-XDvlAqQN1oVx-37" style="edgeStyle=orthogonalEdgeStyle;rounded=0;orthogonalLoop=1;jettySize=auto;html=1;entryX=0;entryY=0.5;entryDx=0;entryDy=0;entryPerimeter=0;" edge="1" parent="Ib48CJe-XDvlAqQN1oVx-24" source="Ib48CJe-XDvlAqQN1oVx-31" target="Ib48CJe-XDvlAqQN1oVx-36">
          <mxGeometry relative="1" as="geometry" />
        </mxCell>
        <mxCell id="Ib48CJe-XDvlAqQN1oVx-41" value="persiapan sidang" style="rounded=1;whiteSpace=wrap;html=1;" vertex="1" parent="Ib48CJe-XDvlAqQN1oVx-24">
          <mxGeometry x="389" y="68.25" width="93" height="48" as="geometry" />
        </mxCell>
        <mxCell id="Ib48CJe-XDvlAqQN1oVx-43" value="&lt;font style=&quot;font-size: 8px;&quot;&gt;berkas lengkap&lt;/font&gt;" style="text;strokeColor=none;align=center;fillColor=none;html=1;verticalAlign=middle;whiteSpace=wrap;rounded=0;" vertex="1" parent="Ib48CJe-XDvlAqQN1oVx-24">
          <mxGeometry x="325.99669921875" y="62.99609566824773" width="60" height="30" as="geometry" />
        </mxCell>
        <mxCell id="Ib48CJe-XDvlAqQN1oVx-45" value="&lt;font style=&quot;font-size: 8px;&quot;&gt;berkas tidak lengkap&lt;/font&gt;" style="text;strokeColor=none;align=center;fillColor=none;html=1;verticalAlign=middle;whiteSpace=wrap;rounded=0;" vertex="1" parent="Ib48CJe-XDvlAqQN1oVx-24">
          <mxGeometry x="312.99669921875" y="139.99609566824773" width="60" height="30" as="geometry" />
        </mxCell>
        <mxCell id="Ib48CJe-XDvlAqQN1oVx-25" value="proses distribusi" style="swimlane;html=1;startSize=20;horizontal=0;" vertex="1" parent="Ib48CJe-XDvlAqQN1oVx-23">
          <mxGeometry x="20" y="189" width="782" height="188" as="geometry" />
        </mxCell>
        <mxCell id="Ib48CJe-XDvlAqQN1oVx-38" value="pencarian berkas" style="rounded=1;whiteSpace=wrap;html=1;" vertex="1" parent="Ib48CJe-XDvlAqQN1oVx-25">
          <mxGeometry x="261.81" y="59" width="93" height="48" as="geometry" />
        </mxCell>
        <mxCell id="Ib48CJe-XDvlAqQN1oVx-70" style="edgeStyle=orthogonalEdgeStyle;rounded=0;orthogonalLoop=1;jettySize=auto;html=1;entryX=0;entryY=0.5;entryDx=0;entryDy=0;" edge="1" parent="Ib48CJe-XDvlAqQN1oVx-25" source="Ib48CJe-XDvlAqQN1oVx-47" target="Ib48CJe-XDvlAqQN1oVx-69">
          <mxGeometry relative="1" as="geometry" />
        </mxCell>
        <mxCell id="Ib48CJe-XDvlAqQN1oVx-47" value="distribusi daftar hakim" style="rounded=1;whiteSpace=wrap;html=1;" vertex="1" parent="Ib48CJe-XDvlAqQN1oVx-25">
          <mxGeometry x="457" y="59" width="93" height="48" as="geometry" />
        </mxCell>
        <mxCell id="Ib48CJe-XDvlAqQN1oVx-72" style="edgeStyle=orthogonalEdgeStyle;rounded=0;orthogonalLoop=1;jettySize=auto;html=1;" edge="1" parent="Ib48CJe-XDvlAqQN1oVx-25" source="Ib48CJe-XDvlAqQN1oVx-69" target="Ib48CJe-XDvlAqQN1oVx-71">
          <mxGeometry relative="1" as="geometry" />
        </mxCell>
        <mxCell id="Ib48CJe-XDvlAqQN1oVx-69" value="dengar pendapat" style="rounded=1;whiteSpace=wrap;html=1;" vertex="1" parent="Ib48CJe-XDvlAqQN1oVx-25">
          <mxGeometry x="582" y="59" width="93" height="48" as="geometry" />
        </mxCell>
        <mxCell id="Ib48CJe-XDvlAqQN1oVx-71" value="end" style="points=[[0.145,0.145,0],[0.5,0,0],[0.855,0.145,0],[1,0.5,0],[0.855,0.855,0],[0.5,1,0],[0.145,0.855,0],[0,0.5,0]];shape=mxgraph.bpmn.event;html=1;verticalLabelPosition=bottom;labelBackgroundColor=#ffffff;verticalAlign=top;align=center;perimeter=ellipsePerimeter;outlineConnect=0;aspect=fixed;outline=end;symbol=terminate2;" vertex="1" parent="Ib48CJe-XDvlAqQN1oVx-25">
          <mxGeometry x="709" y="68" width="30" height="30" as="geometry" />
        </mxCell>
        <mxCell id="Ib48CJe-XDvlAqQN1oVx-44" style="edgeStyle=orthogonalEdgeStyle;rounded=0;orthogonalLoop=1;jettySize=auto;html=1;exitX=0.5;exitY=1;exitDx=0;exitDy=0;exitPerimeter=0;entryX=0.5;entryY=0;entryDx=0;entryDy=0;" edge="1" parent="Ib48CJe-XDvlAqQN1oVx-23" source="Ib48CJe-XDvlAqQN1oVx-36" target="Ib48CJe-XDvlAqQN1oVx-38">
          <mxGeometry relative="1" as="geometry" />
        </mxCell>
        <mxCell id="Ib48CJe-XDvlAqQN1oVx-46" style="edgeStyle=orthogonalEdgeStyle;rounded=0;orthogonalLoop=1;jettySize=auto;html=1;entryX=0.5;entryY=1;entryDx=0;entryDy=0;" edge="1" parent="Ib48CJe-XDvlAqQN1oVx-23" source="Ib48CJe-XDvlAqQN1oVx-38" target="Ib48CJe-XDvlAqQN1oVx-31">
          <mxGeometry relative="1" as="geometry" />
        </mxCell>
        <mxCell id="Ib48CJe-XDvlAqQN1oVx-48" style="edgeStyle=orthogonalEdgeStyle;rounded=0;orthogonalLoop=1;jettySize=auto;html=1;" edge="1" parent="Ib48CJe-XDvlAqQN1oVx-23" source="Ib48CJe-XDvlAqQN1oVx-41" target="Ib48CJe-XDvlAqQN1oVx-47">
          <mxGeometry relative="1" as="geometry">
            <Array as="points">
              <mxPoint x="446" y="272" />
            </Array>
          </mxGeometry>
        </mxCell>
      </root>
    </mxGraphModel>
  </diagram>
</mxfile>
